PathFileType  4	(X/Y/Z) C:\Users\wagnerel85475\Documents\Thesis\opencap-core\Data\3375ffbc-daeb-4a43-b4f7-ac9899cd4c71\MarkerData\PreAugmentation
DataRate	CameraRate	NumFrames	NumMarkers	Units	OrigDataRate	OrigDataStartFrame	OrigNumFrames
60.0	60.0	11	20	m	60.0	147	585
Frame#	Time	Neck			RShoulder			RElbow			RWrist			LShoulder			LElbow			LWrist			midHip			RHip			RKnee			RAnkle			LHip			LKnee			LAnkle			LBigToe			LSmallToe			LHeel			RBigToe			RSmallToe			RHeel			
		X1	Y1	Z1	X2	Y2	Z2	X3	Y3	Z3	X4	Y4	Z4	X5	Y5	Z5	X6	Y6	Z6	X7	Y7	Z7	X8	Y8	Z8	X9	Y9	Z9	X10	Y10	Z10	X11	Y11	Z11	X12	Y12	Z12	X13	Y13	Z13	X14	Y14	Z14	X15	Y15	Z15	X16	Y16	Z16	X17	Y17	Z17	X18	Y18	Z18	X19	Y19	Z19	X20	Y20	Z20	

147	2.4333333	0.2966800	1.7904900	-0.1205200	0.2596600	1.8027100	0.0643900	0.2424600	1.5115200	0.1352500	0.3068200	1.2248700	0.2028500	0.2539600	1.7961700	-0.3003900	0.2139700	1.5158000	-0.3703000	0.3491400	1.2315200	-0.4394900	0.3055400	1.2694900	-0.1164000	0.2870800	1.2727100	0.0029000	0.2216100	0.7773300	-0.0257400	0.1848900	0.2705600	-0.0303100	0.2976700	1.2705900	-0.2393000	0.2202800	0.7745000	-0.2079700	0.2000000	0.2752300	-0.2002700	0.3739100	0.2004200	-0.2321000	0.2951300	0.2017800	-0.2808800	0.1411300	0.2278900	-0.1859500	0.3818300	0.2002900	-0.0272600	0.3641800	0.2087900	0.0261500	0.1622800	0.2227400	-0.0390600
148	2.4500000	0.2963900	1.7906400	-0.1204000	0.2601500	1.8028300	0.0645800	0.2418900	1.5115400	0.1354900	0.3065200	1.2250400	0.2028500	0.2525700	1.8005000	-0.3002500	0.2147200	1.5197300	-0.3704200	0.3504900	1.2467200	-0.4481100	0.3056000	1.2696600	-0.1162600	0.2863700	1.2728900	0.0028700	0.2208300	0.7771300	-0.0259000	0.1848300	0.2706900	-0.0302700	0.2988400	1.2708700	-0.2392500	0.2197500	0.7746700	-0.2080200	0.2004000	0.2755400	-0.2003200	0.3734200	0.2006000	-0.2323100	0.2952200	0.2018000	-0.2808300	0.1414700	0.2239000	-0.1856700	0.3820700	0.2003600	-0.0272300	0.3645600	0.2123200	0.0257200	0.1641500	0.2263400	-0.0398000
149	2.4666667	0.2867600	1.7916700	-0.1162100	0.2596300	1.8027200	0.0644200	0.2424500	1.5115200	0.1352600	0.3069400	1.2249400	0.2028600	0.2532600	1.8004000	-0.3005900	0.2030400	1.5205400	-0.3750800	0.3393400	1.2626200	-0.4532400	0.3053900	1.2695000	-0.1162900	0.2868900	1.2726900	0.0029800	0.2216800	0.7810300	-0.0258500	0.1848500	0.2705200	-0.0303300	0.2867100	1.2704700	-0.2348800	0.2201800	0.7746400	-0.2079900	0.1999800	0.2751000	-0.2002500	0.3742500	0.2002700	-0.2320200	0.3057800	0.2041700	-0.2767700	0.1297500	0.2211600	-0.1896900	0.3819000	0.2002400	-0.0272400	0.3641900	0.2087900	0.0261500	0.1622300	0.2227000	-0.0390800
150	2.4833333	0.2864400	1.7917800	-0.1161100	0.2601200	1.8028800	0.0646100	0.2418600	1.5115400	0.1355000	0.3066600	1.2249100	0.2028800	0.2524500	1.8006600	-0.3001600	0.2037500	1.5201300	-0.3834500	0.3507000	1.2742500	-0.4572800	0.3055900	1.2696200	-0.1162300	0.2867300	1.2688000	0.0029300	0.2325100	0.7820400	-0.0222900	0.1847900	0.2706500	-0.0302900	0.2881900	1.2707000	-0.2349200	0.2198000	0.7746400	-0.2080700	0.2116200	0.2778300	-0.2047500	0.3736600	0.2004900	-0.2322200	0.3058200	0.2041900	-0.2766600	0.1298200	0.2212500	-0.1898400	0.3820900	0.2003800	-0.0272200	0.3641600	0.2088400	0.0261800	0.1641700	0.2263900	-0.0398100
151	2.5000000	0.2866900	1.7918300	-0.1161300	0.2595500	1.8028300	0.0644400	0.2323900	1.5120500	0.1402100	0.3070000	1.2245600	0.2029400	0.2424900	1.8016900	-0.2963900	0.1917500	1.5293800	-0.3885500	0.3617600	1.2884400	-0.4698800	0.3163600	1.2653400	-0.1124500	0.2874400	1.2684500	0.0030200	0.2215300	0.7810200	-0.0258200	0.1848700	0.2742400	-0.0307100	0.2869300	1.2659500	-0.2347500	0.2093100	0.7687400	-0.2037400	0.2111700	0.2774700	-0.2046600	0.3742600	0.2001900	-0.2320100	0.3058200	0.2005100	-0.2762700	0.1298100	0.2211500	-0.1896900	0.3818800	0.2002500	-0.0272300	0.3641700	0.2087700	0.0261700	0.1639100	0.2263500	-0.0397100
152	2.5166667	0.2863000	1.7920600	-0.1159700	0.2601300	1.8028800	0.0646500	0.2319700	1.5120400	0.1404700	0.3066800	1.2247000	0.2029600	0.2410200	1.8060500	-0.2961800	0.2041900	1.5369200	-0.4013800	0.3954900	1.3040100	-0.4813800	0.3168900	1.2614500	-0.1122800	0.2869900	1.2607500	0.0030200	0.2204900	0.7807300	-0.0259800	0.1848400	0.2706100	-0.0302500	0.2776600	1.2661000	-0.2303600	0.2088400	0.7732700	-0.2036500	0.2110800	0.2733000	-0.2049900	0.3841500	0.2027100	-0.2280700	0.3060400	0.2041900	-0.2765900	0.1297700	0.2211100	-0.1898800	0.3821900	0.2003700	-0.0272100	0.3642700	0.2088000	0.0262000	0.1642800	0.2263100	-0.0397700
153	2.5333333	0.2862100	1.7962700	-0.1162800	0.2596800	1.8027100	0.0644800	0.2440600	1.5115600	0.1436000	0.3069100	1.2244800	0.2030000	0.2417200	1.8060600	-0.2964600	0.2265800	1.5361200	-0.4100300	0.4159800	1.3270800	-0.4896600	0.3164100	1.2652700	-0.1123600	0.2991000	1.2606300	0.0067800	0.2212300	0.7809700	-0.0258000	0.1849200	0.2704800	-0.0303100	0.2758100	1.2701000	-0.2303600	0.2200600	0.7746100	-0.2079800	0.2106600	0.2729200	-0.2049000	0.3846600	0.2025200	-0.2279200	0.3060200	0.2041500	-0.2766900	0.1298100	0.2210400	-0.1897200	0.3820400	0.2002300	-0.0272000	0.3643000	0.2087400	0.0261900	0.1640000	0.2263300	-0.0397100
154	2.5500000	0.2860700	1.7965900	-0.1161400	0.2603100	1.8027900	0.0646900	0.2436800	1.5115600	0.1438900	0.3066300	1.2247000	0.2029900	0.2407500	1.8105800	-0.2962700	0.2387100	1.5476800	-0.4141700	0.4263900	1.3513200	-0.4939800	0.3166500	1.2654100	-0.1123400	0.2983100	1.2648300	0.0066100	0.2205900	0.7806800	-0.0259400	0.1848700	0.2743500	-0.0306500	0.2772700	1.2669500	-0.2303600	0.2088700	0.7688500	-0.2037700	0.2111400	0.2732700	-0.2050200	0.3840900	0.2027400	-0.2280900	0.3060400	0.2041900	-0.2766200	0.1298000	0.2211000	-0.1898900	0.3822600	0.2003600	-0.0271800	0.3642800	0.2088000	0.0262300	0.1642800	0.2262800	-0.0398000
155	2.5666667	0.2863500	1.7965300	-0.1161900	0.2597900	1.8026700	0.0644900	0.2444300	1.5115000	0.1437700	0.3070100	1.2246000	0.2030500	0.2307800	1.8117700	-0.2925900	0.2381200	1.5478500	-0.4231300	0.4803000	1.3743900	-0.5209100	0.3167600	1.2652600	-0.1123800	0.2992000	1.2645900	0.0067600	0.2213500	0.7772400	-0.0256000	0.1849400	0.2742200	-0.0307000	0.2868200	1.2701600	-0.2347100	0.2093500	0.7688200	-0.2037400	0.2106000	0.2729100	-0.2049100	0.3847000	0.2024500	-0.2278700	0.3060400	0.2041700	-0.2766700	0.1297000	0.2210000	-0.1897600	0.3820300	0.2002200	-0.0272000	0.3642900	0.2087100	0.0261900	0.1639800	0.2262700	-0.0396900
156	2.5833333	0.2854800	1.8012300	-0.1163400	0.2603200	1.8027400	0.0647500	0.2439400	1.5117100	0.1440600	0.3067500	1.2247900	0.2030700	0.2301100	1.8156500	-0.2918900	0.2395300	1.5550500	-0.4230100	0.4896900	1.4126700	-0.5251100	0.3166200	1.2653300	-0.1123600	0.2990000	1.2607900	0.0067600	0.2325100	0.7739400	-0.0221500	0.1849100	0.2706200	-0.0302600	0.2775800	1.2660600	-0.2304000	0.2089300	0.7687700	-0.2037800	0.2111500	0.2732900	-0.2050400	0.3830900	0.1986100	-0.2283200	0.3060900	0.2042000	-0.2765900	0.1297400	0.2210600	-0.1899300	0.3822100	0.2003200	-0.0272100	0.3642800	0.2087900	0.0262100	0.1627600	0.2226400	-0.0391600
157	2.6000000	0.2754500	1.8022000	-0.1120000	0.2592600	1.7992700	0.0644600	0.2447100	1.5116600	0.1438700	0.3071100	1.2248100	0.2031000	0.2305200	1.8154400	-0.2923000	0.2602500	1.5572300	-0.4229100	0.5094600	1.4626500	-0.5337400	0.3166200	1.2652200	-0.1124300	0.2992200	1.2645600	0.0067500	0.2333100	0.7740400	-0.0219500	0.1850100	0.2704300	-0.0303100	0.2866800	1.2702000	-0.2348200	0.2202400	0.7700300	-0.2081400	0.1994600	0.2705600	-0.2004700	0.3845300	0.2025600	-0.2278200	0.3059400	0.2041200	-0.2766100	0.1294200	0.2251400	-0.1901500	0.3813000	0.1966900	-0.0267300	0.3643900	0.2086800	0.0261400	0.1623100	0.2225900	-0.0390000
